<svg width="749" height="356" viewBox="0 0 749 356" fill="none" xmlns="http://www.w3.org/2000/svg">
<path fill-rule="evenodd" clip-rule="evenodd" d="M39.3998 38.8004H127.7V269.2H1.7998V245.9H89.9998V54.2004H1.7998V0.500397H127.7V23.4004H39.3998V38.8004ZM283 0.500397V269.2H245.3V23.4004H194.7V269.2H157.1V0.500397H283ZM438.3 0.500397V269.2H312.4V0.500397H438.3ZM400.7 23.4004H350.1V245.9H400.7V23.4004ZM593.6 0.400391V269.1H467.7V0.400391H593.6ZM556 23.4004H505.4V245.8H556V23.4004ZM749 0.500397V69.6004H660.7V269.1H623V0.500397H749ZM660.8 23.4004V46.3004H711.4V23.4004H660.8ZM0.299805 287.1H270.1V356H0.499817L0.299805 287.1ZM37.0998 307.2V303.3H13.5998V307.2H24.6998V332.8C24.6998 336.8 22.1998 339.4 16.0998 339.4C12.3998 339.4 9.6998 338.4 7.2998 335.1L2.69983 337.5C5.09983 341.1 9.29982 343.6 16.5998 343.6C25.6998 343.6 30.9998 340 30.9998 332.8V307.2H37.0998ZM71.1998 302.7C54.6998 302.7 43.2998 311.8 43.2998 323.2C43.2998 334.4 54.1998 343.6 70.9998 343.6C87.8998 343.6 99.1998 334.4 99.1998 323.2C99.1998 311.9 87.8998 302.7 71.1998 302.7ZM71.3998 339.6C57.7998 339.6 50.0998 332.1 50.0998 323.1C50.0998 314 57.9998 306.8 71.1998 306.8C84.1998 306.8 92.3998 313.7 92.3998 323.2C92.3998 332.4 84.4998 339.6 71.3998 339.6ZM159.2 326.5V322.5H135.2V326.5H148.5V330C148.5 334.9 142.6 339.6 132.5 339.6C120.3 339.6 112.3 333 112.3 323.2C112.3 313.5 120.6 306.8 133.2 306.8C140 306.8 144.1 308.2 147.2 309.6L148.9 315.2L154.3 314.8L152.7 307.4C148.5 304.7 141.7 302.7 132.8 302.7C116.8 302.7 105.6 311.9 105.6 323.3C105.6 334.7 116.1 343.6 131.4 343.6C139.6 343.6 145.9 341 149.2 337.5L150 343H154.8V326.5H159.2ZM192.5 302.7C176 302.7 164.6 311.8 164.6 323.2C164.6 334.4 175.5 343.6 192.3 343.6C209.1 343.6 220.4 334.4 220.4 323.2C220.4 311.9 209.2 302.7 192.5 302.7ZM192.6 339.6C179.1 339.6 171.4 332.1 171.4 323.1C171.4 314 179.3 306.8 192.5 306.8C205.4 306.8 213.7 313.7 213.7 323.2C213.7 332.4 205.8 339.6 192.6 339.6ZM247.1 320.3C240.9 319.2 234.7 318.2 234.7 313.2C234.7 308.9 239.4 306.7 246.4 306.7C249.6 306.7 253.5 307 257 308.3L257.9 314.2L263 313.9L262.5 306C259 304.1 251.9 302.7 245.8 302.7C236.1 302.7 228 306.3 228 313.7C228 321.5 236.9 323 244.8 324.2C251.7 325.3 258.7 326.3 258.7 332.3C258.7 337.7 252.6 339.7 245.2 339.7C241.1 339.7 237.4 339.2 233.7 337.9L234 332.9L228.9 332.5L227.6 340.3C231.4 342.3 238.1 343.6 245.6 343.6C256.9 343.6 265.5 339.5 265.5 331.9C265.5 322.8 254.6 321.5 247.1 320.3Z" fill="white"/>
</svg>
